<?xml version="1.0" encoding="utf-8"?>
<!-- Generator: Adobe Illustrator 22.1.0, SVG Export Plug-In . SVG Version: 6.00 Build 0)  -->
<svg version="1.1" id="Layer_1" xmlns="http://www.w3.org/2000/svg" xmlns:xlink="http://www.w3.org/1999/xlink" x="0px" y="0px"
	 viewBox="0 0 841.9 595.3" style="enable-background:new 0 0 841.9 595.3;" xml:space="preserve">
<style type="text/css">
	.st0{fill:#FFFFFF;}
</style>
<title>AGM-Mobility Solutions-logo</title>
<path class="st0" d="M612.1,263.3c-3.3,6.2-6.9,13.3-10.2,19.6h29.3L612.1,263.3z"/>
<path class="st0" d="M193.3,151.5c0,4-3.3,7.3-7.3,7.3c0,0-0.1,0-0.1,0c-3.9,0-7-3.2-7-7.1c0,0,0,0,0-0.1c0.1-4.2,3.6-7.5,7.7-7.4
	c3.8,0.1,6.7,3.3,6.6,7.1C193.3,151.4,193.3,151.5,193.3,151.5z"/>
<path class="st0" d="M273.6,151.5c0,4-3.2,7.3-7.2,7.3c0,0-0.1,0-0.1,0c-3.9,0-7-3.2-7-7.1c0,0,0,0,0,0c0.1-4.2,3.6-7.5,7.7-7.4
	c3.8,0.1,6.7,3.3,6.6,7.1C273.6,151.4,273.6,151.4,273.6,151.5z"/>
<path class="st0" d="M260.7,160.6c-1.5,0-2.9,0.6-4,1.7c-0.3,0.3-1.6,1.3-2,1.5v-34.5c0.1-0.1,0.3-0.1,0.4-0.1
	c2.6-0.7,2.5-0.9,2.5-3.6c0-1.3,0-2.5-0.1-3.8c-0.1-2.4-0.6-3.1-2.9-3.7c-0.2-0.1-0.6-0.2-1-0.3l-4-7.8c-0.5-1.4-1.9-2.3-3.4-2.2
	c-6,0-13.3-0.1-19.5-0.1l0,0h-1.5l0,0c-6,0-12,0.1-17.9,0.1c-1.5-0.1-2.9,0.8-3.4,2.2l-4,7.8c-0.3,0.1-0.7,0.2-1,0.3
	c-2.3,0.6-2.9,1.3-2.9,3.7c0,1.3-0.1,2.5-0.1,3.8c0,2.7-0.1,2.8,2.5,3.6c0.1,0,0.3,0.1,0.4,0.1v34.5c-0.4-0.3-1.6-1.2-2-1.5
	c-1.1-1.1-2.5-1.7-4-1.7h-14.5v15.1l5,3.9c1.1,0.7,1.7,1.9,1.5,3.2l-0.2,17.1h10.1v-7.8l32.1,0.1l0,0l32.1-0.1v7.8h10l-0.2-17.1
	c-0.1-1.3,0.5-2.5,1.5-3.2l5-3.9v-15.1H260.7z M249.4,160.1l-3.2-8.6c-0.6-1.6-0.6-1.6-2.1-1.6h-34.8c-1.6,0-1.6,0-2.1,1.6l-3.2,8.6
	v-30.6h45.5L249.4,160.1z"/>
<path class="st0" d="M242.8,241.2c6.6,5.6,18.7,12.4,27.1,14.9c13.8,4.1,26.5,3.2,36.4-0.4c0.1,0,0.2-0.1,0.2-0.3
	c0-0.1-0.1-0.2-0.2-0.2c-4.5,0.3-23-2.6-41-17c-10.2-8-19.1-17.6-26.4-28.3l-0.5-0.7h-22.4c6.1,10,13.4,19.2,21.9,27.4
	C239.3,238.2,241,239.7,242.8,241.2z"/>
<path class="st0" d="M412.7,191c-11.1,19.5-23.6,38.6-39.6,54.7c-8,8.1-16.9,15.3-26.5,21.5c-11,6.9-22.8,10.8-34.9,15.3
	c11.3,3.1,26.6-2.2,37-6.4c10.9-4.5,21.2-10.5,30.4-17.8c18.9-14.9,34.1-34,46.6-54.3c4-6.5,7.8-13.1,11.4-19.9
	c15-28.8,27.3-58.8,36.8-89.8c1.7-5.4,3.4-10.9,5-16.3h-19C448.9,117.4,433,155.3,412.7,191z"/>
<path class="st0" d="M536.2,156.6L536.2,156.6l-9.2-18.5l-2.1-4.3c-8.3,27.3-21.7,55.2-35.9,81.2c-5.4,9.9-11.1,19.6-17.3,29.1h23
	c15.1-25.9,28.4-52.7,39.8-80.4l0.3-0.8c0.5-1.3,1.5-4,1.8-4.8C536.7,157.7,536.3,157,536.2,156.6z"/>
<path class="st0" d="M547.5,177.3l-6.5-11.5c-7.7,19.4-16.5,38.3-26.3,56.7c-3.6,6.6-5.8,10.3-9.5,16.8c-0.2,0.4-1.1,2-2.6,4.8h22.9
	c9.6-18.6,19-37.3,28-56.2C552.7,186.5,547.7,177.7,547.5,177.3L547.5,177.3z"/>
<path class="st0" d="M569.5,212.9c-0.8-1.4-2.5-4.1-5.7-9.1c-1.3-2-4.5-7.4-5.8-9.6l-5.8,12.7c-7,15.4-11.5,23.4-19.2,37.7
	l13.8,13.2c0.4-0.7,1.1-1.9,2.3-4c1.9-3.5,5-9.2,9.8-18.2c6.3-11.9,10.7-20.2,11.4-21.5C570,213.9,569.8,213.5,569.5,212.9z"/>
<path class="st0" d="M579.4,225.4L579.4,225.4l-4.4-5.8c-1.3,2.6-5.5,10.9-9.6,18.9l0,0l-13.7,24.5l13.3,15.9l17.1-30.3
	c2.2-4.1,5.3-10,6.1-11.5C584.4,231.7,583.4,230.6,579.4,225.4z"/>
<path class="st0" d="M593.3,242.8c-7.1,13.1-14.4,26.7-21.3,39.5h22.7l12.8-23.9L593.3,242.8z"/>
<path class="st0" d="M467.2,200.7v-0.6l-26.5,44h23.5c0.5-0.8,2-3.4,5.9-9.9c7.4-12.5,10.6-18,16.7-28.6c0.1-0.3,1.5-3,2.5-4.9
	H467.2z"/>
<path class="st0" d="M435.5,200.7c-11.5,19.1-27.3,38.7-31.2,43.3h28.3c5.8-8.6,11.3-17.2,16.8-26c3.5-5.7,7-11.5,10.4-17.3
	L435.5,200.7z"/>
<path class="st0" d="M501.8,174.3c6.9-16.2,11.7-27.6,18.3-45.1l0,0c0.2-0.5,0.7-2.4,0.8-2.8c-5.3-17.4-8.6-28.1-9.8-32.3
	c-7,22-14.7,42-23.1,63.6l-0.2,0.6l11,22.7C499.8,178.7,500.9,176.3,501.8,174.3z"/>
<path class="st0" d="M487.9,137c2.7-7.4,5.6-15.4,6.6-18c1.6-4.2,6.1-16.5,13.9-40.3h-20.9c-2.6,9.1-5.5,17.6-8.6,26.6
	c-2.4,6.9-4.9,15.5-7.6,22.5l11.8,22.2c0.3-0.8,0.7-1.9,1.2-3.2L487.9,137z"/>
<path class="st0" d="M431.3,77.9h-0.1c-9.7,30.8-20.3,61.4-35.1,90s-34,55.4-59,75.8c-17.3,14.1-38.6,25.4-60.9,23.7
	c-15.9-1.2-30.8-9.1-42.6-19.8s-20.7-24.3-28.3-38.3h-21.1c2.3,6,4.7,11.4,5.3,12.6c2.1,4.2,4.4,8.2,6.9,12.1
	c14.2,21.9,35.6,39.9,61.3,46.3c16.3,4,33.4,3.7,49.6-0.6c1.3-0.4,2.6-0.7,3.9-1.1c2.3-0.7,4.6-1.5,6.8-2.3c6.4-2.4,12.6-5.4,18.5-9
	c28.9-17.6,49.8-45.7,66.9-74.9c21-35.9,37.5-74.3,48.9-114.3H431.3z"/>
<path class="st0" d="M198.5,303.5l-17.4,62.4h14.1l2.9-11.1H214l3,11.1h14l-17.4-62.4H198.5z M210.4,341.2h-8.9l4.4-16.4
	L210.4,341.2z"/>
<path class="st0" d="M274.7,335.7c-0.8-1.2-1.7-2.4-2.9-3.3c-0.5-0.4-1-0.8-1.5-1.1c0.8-1,1.4-2.2,1.9-3.4c0.8-2.1,1.2-4.3,1.1-6.6
	c0-2.6-0.4-5.2-1.3-7.6c-0.8-2.1-2-4-3.6-5.6c-1.5-1.5-3.4-2.7-5.4-3.4c-2-0.8-4.2-1.2-6.4-1.2h-20v62.4h20.3
	c6.5,0,11.6-1.8,15.1-5.2s5.3-8.4,5.3-14.6c0-1.9-0.2-3.9-0.7-5.8C276.2,338.6,275.6,337.1,274.7,335.7z M259.2,325.7
	c-0.5,0.8-1.4,1.4-2.3,1.4h-7v-10h7c1,0,1.8,0.5,2.4,1.3c0.8,1,1.2,2.3,1.2,3.6C260.4,323.3,260,324.6,259.2,325.7L259.2,325.7z
	 M249.9,340.7h8.9c1.3,0,2.5,0.5,3.3,1.4c1,1.2,1.5,2.7,1.4,4.2c0.1,1.6-0.4,3.2-1.4,4.5c-0.9,1-2.2,1.5-3.5,1.5h-8.6L249.9,340.7z"
	/>
<path class="st0" d="M319.3,311.4c-1.8-2.7-4.2-4.9-7-6.5c-5.5-3-12.2-3-17.7,0c-2.8,1.6-5.2,3.8-7,6.5c-2.1,3.1-3.7,6.5-4.6,10.1
	c-2.2,8.7-2.2,17.8,0,26.5c1,3.6,2.6,7,4.7,10.1c1.9,2.7,4.3,4.9,7.2,6.4c2.7,1.5,5.8,2.2,8.9,2.2c3.1,0,6.1-0.8,8.7-2.3
	c2.8-1.6,5.1-3.8,6.9-6.5c2-3.1,3.5-6.5,4.4-10.1c1.1-4.3,1.6-8.7,1.5-13.2c0-4.4-0.5-8.8-1.6-13.1
	C322.9,317.8,321.4,314.5,319.3,311.4z M303.4,316.3c3.1-0.1,5.9,1.6,7.4,4.3c1.8,3,2.8,7.8,2.8,14.1c0,2.8-0.3,5.6-0.9,8.3
	c-0.4,2-1.2,4-2.2,5.7c-0.8,1.3-1.9,2.4-3.2,3.2c-2.4,1.4-5.4,1.4-7.8,0c-1.3-0.8-2.4-1.9-3.2-3.2c-1.1-1.8-1.8-3.7-2.3-5.7
	c-0.6-2.7-0.9-5.5-0.9-8.3c0-6.3,1-11,3-14S300.5,316.3,303.4,316.3L303.4,316.3z"/>
<path class="st0" d="M360.5,342.8c0,3.9-0.6,6.7-1.9,8.2s-3,2.1-5.4,2.1c-2.7,0-4.6-0.7-5.9-2.2s-2-4.2-2-8.1v-39.3h-12.8v39.6
	c0,3.3,0.4,6.5,1.4,9.6c0.8,2.7,2.2,5.3,4,7.5c1.8,2.1,4,3.7,6.6,4.8c2.8,1.2,5.7,1.7,8.8,1.7c2.9,0.1,5.9-0.5,8.5-1.7
	c2.5-1.1,4.7-2.8,6.4-4.9c1.8-2.2,3.1-4.8,3.9-7.6c0.9-3.2,1.3-6.4,1.3-9.7v-39.3h-12.8V342.8z"/>
<path class="st0" d="M417.7,345.6h9.7c-0.3,1.8-1.2,3.5-2.4,4.9c-1.5,1.5-3.5,2.2-5.6,2.2c-1.4,0-2.8-0.4-4-1.2
	c-1.3-0.9-2.5-2.2-3.3-3.6c-2.4-4-3-8.7-3-13.2C409,317,416.8,317,419.4,317c0.7,0,1.5,0.2,2.1,0.4c0.8,0.3,1.6,0.8,2.3,1.3
	c0.8,0.6,1.5,1.3,2.2,2.1c0.7,0.8,1.2,1.7,1.6,2.7l0.8,1.7l11.8-8.7l-0.7-1.2c-2.5-4.6-5.4-7.9-8.6-9.8c-9.4-5.6-22.6-3.1-28.9,5.9
	c-6.9,9.9-7.5,24.3-4.3,35.6c2.2,7.9,7.2,15.9,15.4,18.5c11.6,3.8,22.1-4.2,26.3-14.7c1.5-3.8,2.3-7.9,2.3-11.9
	c0-0.5,0.2-7.1,0.2-7.1h-24.2V345.6z"/>
<polygon class="st0" points="478.3,327.1 463,327.1 463,303.5 450,303.5 450,365.9 463,365.9 463,340.7 478.3,340.7 478.3,365.9 
	491.1,365.9 491.1,303.5 478.3,303.5 "/>
<path class="st0" d="M515.9,303.5l-17.4,62.4h14.1l2.9-11.1h15.9l3,11.1h14.1l-17.4-62.4H515.9z M527.8,341.2H519l4.4-16.4
	L527.8,341.2z"/>
<polygon class="st0" points="568.7,303.5 555.5,303.5 555.5,365.9 591.1,365.9 591.1,352.2 568.7,352.2 "/>
<polygon class="st0" points="616.3,303.5 606.6,325.9 596.9,303.5 582.1,303.5 599.5,342.1 599.5,365.9 613.6,365.9 613.6,341.9 
	630.9,303.5 "/>
<path class="st0" d="M181.1,386.3v63.8h447.7v-63.8H181.1z M241.2,439.3l-3.9-24.7l-12.1,26.5l-11.8-26.6l-4.4,24.7h-6.4l8.6-43.9
	l14,31.8l14.5-31.8l7.7,43.9L241.2,439.3z M325.8,433.9c-8.1,8-21,8.3-29.5,0.7c-4.6-4-6.9-9.3-6.9-15.9c-0.1-5.6,2.2-11,6.3-14.8
	c4-4,9.5-6.3,15.1-6.2c11.7,0.1,21.2,9.5,21.3,21.3C332.2,424.5,329.9,429.9,325.8,433.9L325.8,433.9z M394.3,404.2h-9.4v35.1h-6.2
	v-35.1h-9.4v-5.8h24.9V404.2z M468.1,433.9c-8.1,8-21,8.3-29.5,0.7c-8.6-7.8-9.3-21.2-1.5-29.8c0.3-0.3,0.6-0.6,0.9-0.9
	c4-4,9.5-6.3,15.1-6.2c11.7,0.1,21.2,9.5,21.3,21.3C474.5,424.5,472.2,429.9,468.1,433.9L468.1,433.9z M536.3,439.3l-11.7-16.8h-1.1
	v16.7h-6.2v-40.9h7.2c5.4,0,9.3,1,11.7,3c2.7,2.2,4.1,5.5,4,9c0.1,2.7-0.8,5.3-2.5,7.5c-1.6,2.1-4,3.5-6.6,4l12.7,17.4L536.3,439.3z
	 M605.7,436.3c-2.5,2.5-5.9,3.8-9.4,3.7c-3.2,0.1-6.4-1-8.8-3.2c-2.4-2.4-3.9-5.5-4.3-8.9l6.3-1.4c0.3,2.4,0.8,4.1,1.5,5
	c2.4,3,6.9,3.5,9.9,1.1c0.2-0.1,0.3-0.2,0.4-0.4c1.3-1.3,2-3.1,1.9-4.9c0-0.7-0.1-1.5-0.3-2.2c-0.2-0.7-0.6-1.3-1-1.8
	c-0.5-0.6-1.1-1.1-1.8-1.6c-0.8-0.5-1.7-1-2.7-1.4l-4-1.6c-5.6-2.4-8.4-5.8-8.4-10.4c-0.1-3,1.2-5.8,3.5-7.7
	c2.4-2.1,5.5-3.2,8.8-3.1c4.7,0,8.4,2.3,11,6.9l-5,3c-0.6-1.3-1.5-2.4-2.7-3.2c-2.5-1.3-5.5-1.1-7.7,0.6c-1.1,0.9-1.7,2.2-1.7,3.6
	c0,2,1.5,3.6,4.5,4.8l4.1,1.7c2.8,1,5.3,2.7,7.3,4.9c1.6,2,2.4,4.6,2.3,7.1C609.5,430.5,608.1,433.8,605.7,436.3L605.7,436.3z"/>
<path class="st0" d="M453.1,403.4c-4.1-0.1-8,1.5-10.8,4.4c-6,5.9-6.1,15.6-0.2,21.7s15.6,6.1,21.7,0.2c5.9-6.1,5.9-15.8,0-21.9
	C461,404.9,457.1,403.3,453.1,403.4z"/>
<path class="st0" d="M310.8,403.4c-4-0.1-7.9,1.5-10.8,4.4c-5.9,6.2-5.9,15.9,0.2,22c5.9,5.8,15.4,5.8,21.3-0.1
	c5.9-6.1,5.9-15.8,0.1-21.9C318.7,404.9,314.8,403.3,310.8,403.4z"/>
<path class="st0" d="M534.3,410.4c0-4.2-2.8-6.3-8.5-6.3h-2.2v13h2C531.4,417.1,534.3,414.9,534.3,410.4z"/>
<path class="st0" d="M646.1,449.3c-7.6,0-13.8-6.2-13.8-13.8s6.2-13.8,13.8-13.8c7.6,0,13.8,6.2,13.8,13.8
	C659.9,443.1,653.7,449.3,646.1,449.3z M646.1,424c-6.3,0-11.5,5.1-11.5,11.5c0,6.3,5.1,11.5,11.5,11.5c6.3,0,11.5-5.1,11.5-11.5
	C657.6,429.1,652.4,424,646.1,424L646.1,424z"/>
<path class="st0" d="M640.1,428.1h6.7c0.9,0,1.9,0.1,2.7,0.5c1.3,0.6,2.1,2,2,3.5c0.1,1.5-0.7,2.9-2.1,3.5c0.5,0.2,1,0.5,1.3,0.9
	c0.3,0.6,0.5,1.2,0.5,1.9l0.1,2c0,0.4,0.1,0.8,0.1,1.3c0.1,0.4,0.3,0.7,0.7,0.9v0.3h-2.5c-0.1-0.2-0.1-0.3-0.2-0.5
	c-0.1-0.4-0.1-0.8-0.1-1.2l-0.1-2.5c0.1-0.8-0.3-1.5-1-1.9c-0.6-0.2-1.1-0.3-1.7-0.3h-4.4v6.3h-2V428.1z M646.6,434.9
	c0.8,0,1.5-0.2,2.2-0.6c0.6-0.5,0.9-1.2,0.8-2c0.1-0.9-0.3-1.7-1.1-2.2c-0.5-0.2-1-0.3-1.6-0.3h-4.8v5L646.6,434.9z"/>
<path class="st0" d="M328.9,239.8c-33.1,1.2-49.5-19.2-59.9-30.6h-21c0.7,1,3.3,4.3,3.8,4.9c1.4,1.8,2.9,3.5,4.5,5.2
	c15.6,17.3,43.2,35.1,67.1,24.2c2-0.9,3.9-2,5.7-3.2c0.1-0.1,0.1-0.2,0.1-0.3C329,239.8,328.9,239.8,328.9,239.8z"/>
<path class="st0" d="M182.8,499.1l6.3-32.4l10.4,23.4l10.7-23.4l5.7,32.4h-4.7l-2.9-18.2l-8.9,19.6l-8.7-19.6l-3.3,18.2L182.8,499.1
	z"/>
<path class="st0" d="M222.2,483.9c0-4.1,1.7-8.1,4.7-10.9c2.9-3,7-4.6,11.1-4.6c8.6,0,15.6,7,15.7,15.7c0.1,4.2-1.6,8.1-4.6,11
	c-6,5.9-15.5,6.1-21.8,0.5C223.9,492.6,222,488.3,222.2,483.9z M226.8,483.9c-0.2,6.2,4.7,11.3,10.9,11.4c3.1,0.1,6-1.1,8.2-3.3
	c4.3-4.5,4.3-11.7,0-16.2c-2.1-2.2-4.9-3.3-7.9-3.3c-6.2,0-11.2,5-11.2,11.1C226.8,483.8,226.8,483.9,226.8,483.9L226.8,483.9z"/>
<path class="st0" d="M260.9,499.1v-30.2h4.5c1.6,0,3.2,0.1,4.8,0.5c1.1,0.3,2.2,0.8,3.1,1.6c0.9,0.8,1.5,1.8,2,2.9
	c0.5,1.1,0.8,2.3,0.8,3.5c0,2.1-0.9,4.1-2.5,5.5c1.6,0.5,2.9,1.5,3.8,2.9c2.2,3.4,1.8,7.8-1.1,10.7c-0.9,1-2.1,1.7-3.4,2.1
	c-1.7,0.4-3.4,0.6-5.1,0.6L260.9,499.1z M265.4,481.9h1.4c1.3,0.1,2.7-0.3,3.7-1.1c0.8-0.9,1.3-2.1,1.2-3.3c0.1-1.2-0.4-2.4-1.2-3.2
	c-1-0.8-2.3-1.2-3.5-1.1h-1.6V481.9z M265.4,494.8h2.8c1.6,0.1,3.2-0.3,4.5-1.2c1-0.8,1.6-2,1.5-3.3c0-1.3-0.5-2.5-1.5-3.3
	c-1-0.9-2.6-1.3-5.1-1.3h-2.3V494.8z"/>
<path class="st0" d="M290.5,468.9v30.2h-4.6v-30.2H290.5z"/>
<path class="st0" d="M303.6,468.9v25.9h8.9v4.3h-13.4v-30.2H303.6z"/>
<path class="st0" d="M322.8,468.9v30.2h-4.5v-30.2H322.8z"/>
<path class="st0" d="M339.8,473.2v25.9h-4.5v-25.9h-6.9v-4.3h18.4v4.3H339.8z"/>
<path class="st0" d="M360.2,486.1l-9.8-17.1h5.2l6.9,12l6.9-12h5.2l-9.9,17.1v13h-4.5V486.1z"/>
<path class="st0" d="M410.3,473.4l-3.7,2.2c-0.5-0.9-1.1-1.7-2-2.3c-0.8-0.4-1.6-0.7-2.5-0.6c-1.1,0-2.3,0.3-3.1,1.1
	c-0.8,0.6-1.3,1.6-1.3,2.6c0,1.5,1.1,2.7,3.3,3.6l3,1.2c2.1,0.7,3.9,2,5.4,3.6c1.2,1.5,1.8,3.4,1.7,5.3c0.1,2.6-0.9,5.1-2.8,6.9
	c-1.8,1.8-4.4,2.8-6.9,2.7c-2.4,0.1-4.7-0.7-6.5-2.3c-1.8-1.7-2.9-4.1-3.1-6.5l4.6-1c0.1,1.3,0.4,2.6,1.1,3.7c1.8,2.2,5,2.6,7.3,0.8
	c0.1-0.1,0.2-0.2,0.4-0.3c0.9-1,1.5-2.3,1.4-3.6c0-0.5-0.1-1.1-0.2-1.6c-0.2-0.5-0.4-1-0.8-1.4c-0.4-0.4-0.8-0.8-1.3-1.1
	c-0.6-0.4-1.3-0.7-2-1l-2.8-1.3c-4.1-1.7-6.2-4.3-6.2-7.7c0-2.2,0.9-4.3,2.6-5.7c1.8-1.6,4.1-2.4,6.5-2.3
	C405.6,468.4,408.3,470,410.3,473.4z"/>
<path class="st0" d="M416.4,483.9c0-4.1,1.7-8.1,4.7-10.9c2.9-3,7-4.6,11.2-4.6c8.7,0,15.7,7,15.7,15.7c0.1,4.2-1.6,8.1-4.6,11
	c-6,5.9-15.5,6.1-21.8,0.5C418.2,492.6,416.3,488.3,416.4,483.9z M421,483.9c-0.2,6.2,4.7,11.3,10.9,11.4c3.1,0.1,6-1.1,8.2-3.3
	c4.3-4.5,4.3-11.7,0-16.2c-4.4-4.4-11.5-4.4-15.9,0C422.1,478,420.9,480.9,421,483.9L421,483.9z"/>
<path class="st0" d="M459.6,468.9v25.9h8.9v4.3h-13.4v-30.2H459.6z"/>
<path class="st0" d="M477.9,468.9v18.2c0,2.6,0.4,4.5,1.3,5.7c2.3,2.9,6.6,3.5,9.5,1.2c0.4-0.3,0.8-0.7,1.2-1.2
	c0.9-1.2,1.3-3.1,1.3-5.7v-18.2h4.5v19.4c0,6.2-5,11.2-11.2,11.2s-11.2-5-11.2-11.2v-19.4H477.9z"/>
<path class="st0" d="M512.6,473.2v25.9H508v-25.9h-6.9v-4.3h18.4v4.3H512.6z"/>
<path class="st0" d="M529.5,468.9v30.2H525v-30.2H529.5z"/>
<path class="st0" d="M536.7,483.9c0-4.1,1.6-8.1,4.7-10.9c2.9-3,7-4.6,11.2-4.6c8.6,0,15.6,7,15.7,15.7c0.1,4.2-1.6,8.1-4.7,11
	c-6,5.9-15.5,6.1-21.8,0.5C538.4,492.6,536.5,488.3,536.7,483.9z M541.2,483.9c-0.1,3.1,1.1,6.1,3.4,8.2c2,2.1,4.8,3.2,7.7,3.2
	c3,0.1,5.9-1.1,8-3.3c4.3-4.5,4.3-11.7,0-16.2c-4.4-4.4-11.5-4.4-15.9,0C542.3,478,541.2,480.9,541.2,483.9L541.2,483.9z"/>
<path class="st0" d="M575.3,499.1v-32.2l22,23v-21h4.5v32l-22-23V499L575.3,499.1z"/>
<path class="st0" d="M627.5,473.4l-3.7,2.2c-0.5-0.9-1.2-1.7-2-2.3c-0.8-0.4-1.6-0.7-2.5-0.6c-1.1,0-2.3,0.3-3.1,1.1
	c-0.8,0.6-1.3,1.6-1.3,2.6c0,1.5,1.1,2.7,3.3,3.6l3,1.2c2.1,0.7,3.9,2,5.4,3.6c1.2,1.5,1.7,3.4,1.7,5.3c0.1,2.6-0.9,5.1-2.8,6.9
	c-1.8,1.8-4.3,2.8-6.9,2.7c-2.4,0.1-4.7-0.7-6.5-2.3c-1.8-1.7-2.9-4.1-3.1-6.5l4.6-1c0.1,1.3,0.4,2.6,1.1,3.7c1.8,2.2,5,2.6,7.3,0.8
	c0.1-0.1,0.2-0.2,0.3-0.3c0.9-1,1.5-2.3,1.4-3.6c0-0.5-0.1-1.1-0.3-1.6c-0.2-0.5-0.4-1-0.8-1.4c-0.4-0.4-0.8-0.8-1.3-1.1
	c-0.6-0.4-1.3-0.7-2-1l-2.8-1.3c-4.1-1.7-6.2-4.3-6.2-7.7c0-2.2,0.9-4.3,2.6-5.7c1.8-1.6,4.1-2.4,6.5-2.3
	C622.9,468.4,625.6,470,627.5,473.4z"/>
</svg>
