<svg version="1.1" id="Layer_1" xmlns:x="ns_extend;" xmlns:i="ns_ai;" xmlns:graph="ns_graphs;" xmlns="http://www.w3.org/2000/svg" xmlns:xlink="http://www.w3.org/1999/xlink" x="0px" y="0px" viewBox="0 0 190 42.7" style="enable-background:new 0 0 190 42.7;" xml:space="preserve">
 <style type="text/css">
  .st0{clip-path:url(#SVGID_2_);}
 </style>
 <metadata>
  <sfw xmlns="ns_sfw;">
   <slices>
   </slices>
   <sliceSourceBounds bottomLeftOrigin="true" height="42.7" width="190" x="0" y="0">
   </sliceSourceBounds>
  </sfw>
 </metadata>
 <g>
  <g>
   <defs>
    <rect id="SVGID_1_" width="190" height="42.7">
    </rect>
   </defs>
   <clipPath id="SVGID_2_">
    <use href="#SVGID_1_" style="overflow:visible;">
    </use>
   </clipPath>
   <g id="グループ_29357" class="st0">
    <path id="パス_14551" d="M110.3,8.6H97.4c-0.5,0-1,0-1.5-0.1c-1-0.3-1.7-1.2-1.7-2.3c0-1.1,0.7-2,1.7-2.3
				c0.5-0.1,1-0.2,1.5-0.1h18.3V0H97c-0.6,0-1.2,0-1.8,0.1c-3,0.4-5.3,3-5.2,6.1c-0.1,3,2.1,5.7,5.1,6.1c0.7,0.1,1.4,0.1,2.1,0.1
				h12.5c0.2,0,0.8,0,1,0c1.4,0.2,2.4,1.5,2.2,3c-0.2,1.1-1,2-2.1,2.2c-0.2,0-0.9,0-1.1,0H90.6v3.8h19.5c0.2,0,1.3,0,1.5,0
				c3.6-0.3,5.5-3.3,5.5-6.4c0-2.7-1.7-6-5.2-6.3C111.4,8.6,110.8,8.6,110.3,8.6">
    </path>
    <path id="パス_14552" d="M73.3,8.6H60.4c-0.5,0-1,0-1.5-0.1c-1-0.3-1.7-1.2-1.7-2.3c0-1.1,0.7-2,1.7-2.3c0.5-0.1,1-0.2,1.5-0.1
				h18.3V0H60c-0.6,0-1.2,0-1.8,0.1c-3,0.4-5.3,3-5.2,6.1c-0.1,3,2.1,5.7,5.1,6.1c0.7,0.1,1.4,0.1,2.1,0.1h12.5c0.2,0,0.8,0,1,0
				C75,12.6,76,13.7,76,15c0,1.3-0.9,2.4-2.1,2.6c-0.2,0-0.9,0-1.1,0H53.6v3.8h19.5c0.2,0,1.3,0,1.5,0c3.6-0.3,5.5-3.3,5.5-6.4
				c0-2.7-1.7-6-5.2-6.3C74.4,8.6,73.8,8.6,73.3,8.6">
    </path>
    <rect id="長方形_6045" x="38.5" width="4.1" height="21.4">
    </rect>
    <path id="パス_14553" d="M20.7,31.7c-2.8,0-5.7,1.7-5.7,5.4c0,5.2,4.4,5.6,5.7,5.6s5.7-0.4,5.7-5.6
				C26.4,33.4,23.4,31.7,20.7,31.7 M20.7,40.7c-1.8,0.1-3.3-1.4-3.4-3.2c0-0.2,0-0.3,0-0.5c0-1.8,1.4-3.4,3.2-3.4
				c1.8,0,3.4,1.4,3.4,3.2c0,0.1,0,0.1,0,0.2c0.2,1.8-1.1,3.4-2.9,3.6C21,40.7,20.8,40.7,20.7,40.7">
    </path>
    <path id="パス_14554" d="M30.8,42.5H33v-8.7h3.6v-1.9h-9.5v1.9h3.6V42.5z">
    </path>
    <path id="パス_14555" d="M43.3,31.7c-2.8,0-5.7,1.7-5.7,5.4c0,5.2,4.4,5.6,5.7,5.6s5.7-0.4,5.7-5.6
				C49,33.4,46.1,31.7,43.3,31.7 M43.3,40.7c-1.8,0.1-3.3-1.4-3.4-3.2c0-0.2,0-0.3,0-0.5c0-1.8,1.4-3.4,3.2-3.4
				c1.8,0,3.4,1.4,3.4,3.2c0,0.1,0,0.1,0,0.2c0.2,1.8-1.1,3.4-2.9,3.6C43.6,40.7,43.5,40.7,43.3,40.7">
    </path>
    <path id="パス_14556" d="M57.7,38.5c1.5-0.3,2.5-1.6,2.5-3.1c0-2.9-2.4-3.5-4.4-3.5h-5v10.6h2.3V39h2l2.6,3.5h2.8l-3.1-3.9
				L57.7,38.5z M55.4,37.1h-2.2v-3.4h2.1c1.7,0,2.5,0.5,2.5,1.6C57.9,36.5,57.1,37.1,55.4,37.1">
    </path>
    <path id="パス_14557" d="M73.7,40.7c-2.4,0-4-1.4-4-3.6c0-2.3,1.4-3.5,4.1-3.5c1,0,2,0.1,2.9,0.4v-2c-1-0.3-2.1-0.4-3.1-0.4
				c-2.9,0-6.2,1.4-6.2,5.5c0,3.5,2.3,5.5,6.2,5.5c1.1,0,2.1-0.1,3.2-0.3v-2.1C75.8,40.5,74.8,40.7,73.7,40.7L73.7,40.7z">
    </path>
    <path id="パス_14558" d="M84.1,31.7c-2.8,0-5.7,1.7-5.7,5.4c0,5.2,4.4,5.6,5.7,5.6s5.7-0.4,5.7-5.6
				C89.8,33.4,86.9,31.7,84.1,31.7 M84.1,40.7c-1.8,0.1-3.3-1.4-3.4-3.2c0-0.2,0-0.3,0-0.5c0-1.8,1.4-3.4,3.2-3.4s3.4,1.4,3.4,3.2
				c0,0.1,0,0.1,0,0.2c0.2,1.8-1.1,3.4-2.9,3.6C84.4,40.7,84.3,40.7,84.1,40.7">
    </path>
    <path id="パス_14559" d="M98.8,38.5c1.5-0.3,2.5-1.6,2.5-3.1c0-2.9-2.4-3.5-4.4-3.5h-5v10.6h2.3V39h2l2.6,3.5h2.8l-3.1-3.9
				L98.8,38.5z M96.5,37.1h-2.2v-3.4h2.1c1.7,0,2.5,0.5,2.5,1.6C99,36.5,98.2,37.1,96.5,37.1">
    </path>
    <path id="パス_14560" d="M108.8,31.9h-4.9v10.6h2.3v-3h2.6c2.2,0,4.6-1,4.6-3.8C113.4,33.1,111.9,31.9,108.8,31.9 M108.5,37.6
				h-2.4v-3.8h2.4c1.2,0,2.5,0.2,2.5,1.8C111,37.3,109.7,37.6,108.5,37.6">
    </path>
    <path id="パス_14561" d="M120.6,31.7c-2.8,0-5.7,1.7-5.7,5.4c0,5.2,4.4,5.6,5.7,5.6s5.7-0.4,5.7-5.6
				C126.3,33.4,123.4,31.7,120.6,31.7 M120.6,40.7c-1.8,0.1-3.3-1.4-3.4-3.2c0-0.2,0-0.3,0-0.5c0-1.8,1.4-3.4,3.2-3.4
				s3.4,1.4,3.4,3.2c0,0.1,0,0.1,0,0.2c0.2,1.8-1.1,3.4-2.9,3.6C120.9,40.7,120.8,40.7,120.6,40.7">
    </path>
    <path id="パス_14562" d="M135.3,38.5c1.5-0.3,2.5-1.6,2.5-3.1c0-2.9-2.4-3.5-4.4-3.5h-5v10.6h2.3V39h2l2.6,3.5h2.8l-3.1-3.9
				L135.3,38.5z M133,37.1h-2.2v-3.4h2.1c1.7,0,2.5,0.5,2.5,1.6C135.5,36.5,134.7,37.1,133,37.1">
    </path>
    <path id="パス_14563" d="M143.4,31.9l-4,10.6h2.3l0.7-2h5.4l0.6,2h2.5l-4.1-10.6L143.4,31.9z M143,38.6l2-5.2l2.1,5.2H143z">
    </path>
    <path id="パス_14564" d="M153.9,42.5h2.3v-8.7h3.6v-1.9h-9.5v1.9h3.6L153.9,42.5z">
    </path>
    <rect id="長方形_6046" x="162" y="31.9" width="2.3" height="10.6">
    </rect>
    <path id="パス_14565" d="M172.2,31.7c-2.8,0-5.7,1.7-5.7,5.4c0,5.2,4.4,5.6,5.7,5.6s5.7-0.4,5.7-5.6
				C178,33.4,175,31.7,172.2,31.7 M172.2,40.7c-1.8,0.1-3.3-1.4-3.4-3.2c0-0.2,0-0.3,0-0.5c0-1.8,1.4-3.4,3.2-3.4s3.4,1.4,3.4,3.2
				c0,0.1,0,0.1,0,0.2c0.2,1.8-1.1,3.4-2.9,3.6C172.6,40.7,172.4,40.7,172.2,40.7">
    </path>
    <path id="パス_14566" d="M187.8,39.1l-4.9-7.2h-2.8v10.6h2.2v-7.7l5.3,7.7h2.3V31.9h-2.2V39.1z">
    </path>
    <path id="パス_14567" d="M2.3,31.9H0v10.6h2.3V36l3.4,6.5h1.6l3.4-6.5v6.5H13V31.9h-2.3l-4.2,7.7L2.3,31.9z">
    </path>
    <path id="パス_14568" d="M22.7,17.1L5.8,0H0v21.4h4.1V4.2l17,17.2h5.6V0h-4.1V17.1z">
    </path>
    <path id="パス_14569" d="M185.9,17.1L168.9,0h-5.8v21.4h4.1V4.2l17,17.2h5.6V0h-4.1L185.9,17.1z">
    </path>
    <path id="パス_14570" d="M137.4,0L124,21.4h5l2.5-4h16.6l2.5,4h5L142.2,0H137.4z M133.6,14L139.8,4l6.3,10.1H133.6z">
    </path>
   </g>
  </g>
 </g>
</svg>