<svg xmlns="http://www.w3.org/2000/svg" xmlns:xlink="http://www.w3.org/1999/xlink" width="190" height="42.661" viewBox="0 0 190 42.661">
 <defs>
  <clipPath id="clip-path">
   <rect id="長方形_6047" data-name="長方形 6047" width="190" height="42.661" fill="#fff">
   </rect>
  </clipPath>
 </defs>
 <g id="グループ_29357" data-name="グループ 29357" clip-path="url(#clip-path)">
  <path id="パス_14551" data-name="パス 14551" d="M192.162,8.619h-12.93a7.516,7.516,0,0,1-1.543-.13A2.3,2.3,0,0,1,176,6.166a2.371,2.371,0,0,1,1.718-2.312,5.018,5.018,0,0,1,1.471-.116h18.344V0H178.883a13.262,13.262,0,0,0-1.849.1,5.987,5.987,0,0,0-5.2,6.077,6.024,6.024,0,0,0,5.123,6.117,16.785,16.785,0,0,0,2.109.086h12.527c.179,0,.812.013.973.034a2.624,2.624,0,0,1,.129,5.177c-.191.031-.857.05-1.072.05H172.463v3.78h19.466c.234,0,1.311-.008,1.533-.031C197.1,21.06,199,18.114,199,14.995c0-2.747-1.727-5.963-5.236-6.31a15.8,15.8,0,0,0-1.6-.065" transform="translate(-81.855 0)" fill="#fff">
  </path>
  <path id="パス_14552" data-name="パス 14552" d="M121.5,8.619H108.57a7.534,7.534,0,0,1-1.546-.13,2.3,2.3,0,0,1-1.693-2.323,2.372,2.372,0,0,1,1.719-2.312,5,5,0,0,1,1.47-.116h18.344V0H108.219a13.253,13.253,0,0,0-1.849.1,5.987,5.987,0,0,0-5.2,6.077,6.026,6.026,0,0,0,5.124,6.117,16.784,16.784,0,0,0,2.108.086h12.53c.178,0,.811.013.973.034a2.526,2.526,0,0,1,2.264,2.617,2.547,2.547,0,0,1-2.135,2.56c-.19.031-.855.05-1.069.05H101.8v3.78h19.465c.234,0,1.312-.008,1.533-.031,3.64-.327,5.541-3.273,5.541-6.392,0-2.747-1.729-5.963-5.24-6.31a15.778,15.778,0,0,0-1.6-.065" transform="translate(-48.193 0)" fill="#fff">
  </path>
  <rect id="長方形_6045" data-name="長方形 6045" width="4.123" height="21.418" transform="translate(38.478)" fill="#fff">
  </rect>
  <path id="パス_14553" data-name="パス 14553" d="M34.236,60.5c-2.759,0-5.728,1.687-5.728,5.391,0,5.188,4.372,5.591,5.712,5.591s5.725-.4,5.725-5.591c0-3.7-2.958-5.391-5.709-5.391m0,9.025A3.258,3.258,0,0,1,30.9,65.9a3.326,3.326,0,1,1,6.65,0,3.249,3.249,0,0,1-3.316,3.617" transform="translate(-13.58 -28.818)" fill="#fff">
  </path>
  <path id="パス_14554" data-name="パス 14554" d="M55.5,71.46h2.275V62.753H61.37V60.88H51.914v1.873H55.5Z" transform="translate(-24.73 -29.001)" fill="#fff">
  </path>
  <path id="パス_14555" data-name="パス 14555" d="M77.557,60.5c-2.757,0-5.727,1.687-5.727,5.391,0,5.188,4.371,5.591,5.71,5.591s5.727-.4,5.727-5.591c0-3.7-2.96-5.391-5.71-5.391m0,9.025A3.257,3.257,0,0,1,74.224,65.9a3.325,3.325,0,1,1,6.648,0,3.25,3.25,0,0,1-3.316,3.617" transform="translate(-34.217 -28.818)" fill="#fff">
  </path>
  <path id="パス_14556" data-name="パス 14556" d="M104.049,67.472a3.179,3.179,0,0,0,2.526-3.115c0-2.874-2.385-3.477-4.383-3.477H97.219V71.461H99.5V67.988h1.987l2.553,3.472h2.838l-3.071-3.93Zm-2.311-1.357H99.545V62.754h2.143c1.679,0,2.494.525,2.494,1.6,0,1.182-.8,1.758-2.443,1.758" transform="translate(-46.311 -29.001)" fill="#fff">
  </path>
  <path id="パス_14557" data-name="パス 14557" d="M135.019,69.522c-2.441,0-3.956-1.361-3.956-3.551,0-2.269,1.441-3.518,4.054-3.518a9.27,9.27,0,0,1,2.891.444V60.924A12.448,12.448,0,0,0,134.9,60.5c-2.875,0-6.232,1.438-6.232,5.491,0,3.491,2.26,5.491,6.2,5.491a16.715,16.715,0,0,0,3.16-.339v-2.1a11.361,11.361,0,0,1-2.956.484Z" transform="translate(-61.292 -28.818)" fill="#fff">
  </path>
  <path id="パス_14558" data-name="パス 14558" d="M155.449,60.5c-2.76,0-5.728,1.687-5.728,5.391,0,5.188,4.369,5.591,5.708,5.591s5.727-.4,5.727-5.591c0-3.7-2.959-5.391-5.707-5.391m0,9.025a3.259,3.259,0,0,1-3.336-3.617,3.326,3.326,0,1,1,6.65,0,3.249,3.249,0,0,1-3.315,3.617" transform="translate(-71.321 -28.818)" fill="#fff">
  </path>
  <path id="パス_14559" data-name="パス 14559" d="M182.534,67.472a3.18,3.18,0,0,0,2.526-3.115c0-2.874-2.384-3.477-4.385-3.477h-4.97V71.461h2.276V67.988h1.988l2.55,3.472h2.84l-3.071-3.93Zm-2.312-1.357H178.03V62.754h2.142c1.678,0,2.494.525,2.494,1.6,0,1.182-.8,1.758-2.444,1.758" transform="translate(-83.699 -29.001)" fill="#fff">
  </path>
  <path id="パス_14560" data-name="パス 14560" d="M203.231,60.88h-4.9V71.461H200.6v-3h2.644c2.227,0,4.6-1,4.6-3.8,0-2.544-1.511-3.781-4.62-3.781m-.219,5.7H200.6v-3.83h2.36c1.161,0,2.494.208,2.494,1.84,0,1.754-1.235,1.99-2.444,1.99" transform="translate(-94.475 -29.001)" fill="#fff">
  </path>
  <path id="パス_14561" data-name="パス 14561" d="M225.166,60.5c-2.758,0-5.728,1.687-5.728,5.391,0,5.188,4.372,5.591,5.71,5.591s5.727-.4,5.727-5.591c0-3.7-2.96-5.391-5.71-5.391m0,9.025a3.257,3.257,0,0,1-3.333-3.617,3.326,3.326,0,1,1,6.65,0,3.25,3.25,0,0,1-3.317,3.617" transform="translate(-104.532 -28.818)" fill="#fff">
  </path>
  <path id="パス_14562" data-name="パス 14562" d="M252.251,67.472a3.18,3.18,0,0,0,2.525-3.115c0-2.874-2.383-3.477-4.384-3.477h-4.971V71.461H247.7V67.988h1.989l2.551,3.472h2.84L252,67.531Zm-2.311-1.357h-2.194V62.754h2.143c1.678,0,2.495.525,2.495,1.6,0,1.182-.8,1.758-2.444,1.758" transform="translate(-116.909 -29.001)" fill="#fff">
  </path>
  <path id="パス_14563" data-name="パス 14563" d="M270.148,60.88l-4,10.58H268.4l.716-1.979h5.364l.638,1.979h2.514l-4.085-10.58Zm-.371,6.727,1.985-5.2,2.062,5.2Z" transform="translate(-126.78 -29.001)" fill="#fff">
  </path>
  <path id="パス_14564" data-name="パス 14564" d="M290.563,71.46h2.277V62.753h3.588V60.88h-9.455v1.873h3.591Z" transform="translate(-136.702 -29.001)" fill="#fff">
  </path>
  <rect id="長方形_6046" data-name="長方形 6046" width="2.276" height="10.58" transform="translate(161.953 31.879)" fill="#fff">
  </rect>
  <path id="パス_14565" data-name="パス 14565" d="M323.733,60.5c-2.758,0-5.728,1.687-5.728,5.391,0,5.188,4.372,5.591,5.711,5.591s5.728-.4,5.728-5.591c0-3.7-2.96-5.391-5.711-5.391m0,9.025A3.258,3.258,0,0,1,320.4,65.9a3.326,3.326,0,1,1,6.65,0,3.25,3.25,0,0,1-3.317,3.617" transform="translate(-151.485 -28.818)" fill="#fff">
  </path>
  <path id="パス_14566" data-name="パス 14566" d="M351.62,68.1l-4.913-7.191h-2.754V71.475h2.224v-7.7l5.332,7.7h2.337V60.911H351.62Z" transform="translate(-163.846 -29.016)" fill="#fff">
  </path>
  <path id="パス_14567" data-name="パス 14567" d="M2.341,60.88H0V71.46H2.275V64.978L5.707,71.46H7.294l3.431-6.483V71.46H13V60.88H10.66L6.5,68.557Z" transform="translate(0 -29.001)" fill="#fff">
  </path>
  <path id="パス_14568" data-name="パス 14568" d="M22.7,17.114,5.765,0H0V21.418H4.125V4.194L21.171,21.418h5.65V0H22.7Z" transform="translate(0 -0.001)" fill="#fff">
  </path>
  <path id="パス_14569" data-name="パス 14569" d="M334.323,17.114,317.391,0h-5.764V21.418h4.124V4.194L332.8,21.418h5.649V0h-4.125Z" transform="translate(-148.447 -0.001)" fill="#fff">
  </path>
  <path id="パス_14570" data-name="パス 14570" d="M250.216,0,236.844,21.418h5.032l2.465-3.966h16.608l2.467,3.966h5.025L255.073,0Zm-3.832,14.043,6.263-10.064L258.9,14.043Z" transform="translate(-112.823 0)" fill="#fff">
  </path>
 </g>
</svg>