<svg version="1.1" id="Layer_1" xmlns:x="ns_extend;" xmlns:i="ns_ai;" xmlns:graph="ns_graphs;" xmlns="http://www.w3.org/2000/svg" xmlns:xlink="http://www.w3.org/1999/xlink" x="0px" y="0px" viewBox="0 0 221 65.3" style="enable-background:new 0 0 221 65.3;" xml:space="preserve">
 <metadata>
  <sfw xmlns="ns_sfw;">
   <slices>
   </slices>
   <sliceSourceBounds bottomLeftOrigin="true" height="65.3" width="221" x="-410.9" y="-67.5">
   </sliceSourceBounds>
  </sfw>
 </metadata>
 <g>
  <g>
   <g>
    <g>
     <path d="M61.5,6.9c0.1,3.8,0.3,8.5,0.4,10.5c0.1,2,0.3,5,0.3,6.8c0.1,1.9,0.3,3.3,0.6,3.4c0.3,0.1,2.7,0.4,5.5,0.5
					c2.8,0.1,5.8,0.3,6.7,0.4c0.9,0.1,3.7,0.3,6.3,0.4c2.6,0.1,7.8,0.4,11.6,0.5c9,0.4,26.4,0.4,35.6,0c3.9-0.2,9.2-0.4,11.6-0.5
					c2.5-0.1,5.3-0.3,6.3-0.4c1-0.1,4-0.3,6.6-0.4c2.6-0.1,5.1-0.3,5.4-0.4c0.5-0.1,0.6-1,0.8-5.1c0.3-5.5,0.7-18.3,0.8-20.8V0.2
					l-49.3-0.1L61.2,0L61.5,6.9z">
     </path>
     <path d="M40.9,0.5C40.8,0.6,36,0.7,30.2,0.9C19,1.1,10.7,1.6,7.9,2.1C2.6,3.3,0.1,6.7,0,13.2c-0.1,4.8,0.3,9.3,0.6,9.6
					c0.2,0.2,2.1,0.4,4.1,0.5c2.1,0.1,8.3,0.6,13.8,1.1c5.5,0.5,11.3,0.9,12.9,1c1.6,0.1,3.9,0.3,5.2,0.4c2.4,0.2,15.9,1.1,20.1,1.4
					l2.5,0.2L59,25.1c-0.1-1.3-0.3-4.9-0.4-7.9c-0.1-3-0.3-6.8-0.4-8.2c-0.1-1.5-0.2-4-0.2-5.7V0.4h-8.5C44.9,0.4,41,0.4,40.9,0.5z">
     </path>
     <path d="M163.3,0.9c0,0.4-0.3,5.7-0.5,11.8c-0.3,6.1-0.5,11.9-0.5,12.9v1.9l2.4-0.2c1.3-0.1,6.9-0.5,12.4-0.9
					c13-0.9,12.8-0.9,25.4-2c5.9-0.5,12.3-1,14.3-1.1c2-0.1,3.7-0.4,3.9-0.5c0.2-0.1,0.4-3.3,0.4-7c0-6.4,0-6.8-0.8-8.6
					c-2-4.4-5.2-5.5-17.7-6c-2.9-0.1-6.4-0.3-7.7-0.4c-1.3-0.1-8.9-0.3-16.9-0.4C163.7,0.2,163.3,0.2,163.3,0.9z">
     </path>
     <path d="M1.1,27.9c1.7,12.6,6.7,17.9,21.4,22.7c6.1,2,26.2,6.4,37.7,8.2l1.5,0.3l-0.2-2.3c-0.8-8.5-1.6-18.9-1.8-22
					c-0.1-2-0.4-3.8-0.5-3.8c-0.3-0.2-5.4-0.6-12.8-1.1C42.1,29.6,21,28,18.8,27.8c-0.9-0.1-3.1-0.3-5-0.4c-1.9-0.1-5.5-0.4-8.2-0.6
					l-4.8-0.4L1.1,27.9z">
     </path>
     <path d="M215.4,26.7c-2.5,0.3-6,0.6-7.9,0.7c-1.9,0.1-4.1,0.3-5.2,0.4c-2.4,0.2-19.4,1.5-22.7,1.8c-1.5,0.1-3.8,0.3-5.2,0.4
					c-6,0.4-12.5,0.9-12.6,1c-0.2,0.2-2.4,27.9-2.2,28c0.3,0.4,15.2-2.5,27.6-5.3c14.5-3.3,22.1-6.4,26.7-11.3
					c3.3-3.4,4.6-6.5,5.9-12.9c0.6-3.5,0.6-3.3,0.3-3.2C220.1,26.2,217.9,26.4,215.4,26.7z">
     </path>
     <path d="M62.7,30.9c-0.1,0.1,0.1,3.2,0.5,6.9c0.3,3.7,0.7,8.1,0.8,9.8c0.3,4.5,1,12,1.1,12.1c0.3,0.4,19,3.2,28.8,4.4
					c13.9,1.6,19.2,1.6,33.4,0c9.3-1.1,26.7-3.7,28.3-4.3c0.6-0.2,0.8-0.6,0.8-1.8c0-0.9,0.3-3.2,0.4-5.2c1-10.2,1.8-21.4,1.5-21.6
					c-0.1-0.1-4.5,0-9.8,0.4c-5.2,0.3-12.6,0.8-16.5,0.9c-8.7,0.4-34.2,0.4-42.4,0c-8.3-0.4-24.4-1.3-25.8-1.5
					C63.3,30.9,62.7,30.9,62.7,30.9z">
     </path>
    </g>
   </g>
  </g>
 </g>
</svg>