<svg version="1.1" id="Layer_1" xmlns:x="ns_extend;" xmlns:i="ns_ai;" xmlns:graph="ns_graphs;" xmlns="http://www.w3.org/2000/svg" xmlns:xlink="http://www.w3.org/1999/xlink" x="0px" y="0px" viewBox="0 0 203.9 58.2" style="enable-background:new 0 0 203.9 58.2;" xml:space="preserve">
 <style type="text/css">
  .st0{filter:url(#Adobe_OpacityMaskFilter);}
	.st1{fill-rule:evenodd;clip-rule:evenodd;fill:#FFFFFF;}
	.st2{mask:url(#mask-6_1_);fill-rule:evenodd;clip-rule:evenodd;fill:#E50012;}
	.st3{fill-rule:evenodd;clip-rule:evenodd;fill:#E50012;}
 </style>
 <metadata>
  <sfw xmlns="ns_sfw;">
   <slices>
   </slices>
   <sliceSourceBounds bottomLeftOrigin="true" height="58.2" width="203.9" x="28.1" y="35.8">
   </sliceSourceBounds>
  </sfw>
 </metadata>
 <desc>
  Created with Sketch.
 </desc>
 <g id="UI-Kit">
  <g id="Desktop-HD" transform="translate(-1057.000000, -67.000000)">
   <g id="Page-1" transform="translate(1057.000000, 66.000000)">
    <g id="Group-41" transform="translate(28.000000, 0.363500)">
     <g id="Clip-40">
     </g>
     <defs>
      <filter id="Adobe_OpacityMaskFilter" filterUnits="userSpaceOnUse" x="-28" y="0.6" width="203.9" height="58.2">
       <feColorMatrix type="matrix" values="1 0 0 0 0  0 1 0 0 0  0 0 1 0 0  0 0 0 1 0">
       </feColorMatrix>
      </filter>
     </defs>
     <mask maskUnits="userSpaceOnUse" x="-28" y="0.6" width="203.9" height="58.2" id="mask-6_1_">
      <g class="st0">
       <polygon id="path-5_1_" class="st1" points="175.9,0.6 -28,0.6 -28,58.8 175.9,58.8 						">
       </polygon>
      </g>
     </mask>
     <path id="Fill-39" class="st2" d="M132.6,35.9l-17.9,0c-1.9,2.7-5.1,4.4-8.6,4.4c-5.9,0-10.6-4.8-10.6-10.6
					c0-5.9,4.8-10.6,10.6-10.6c3.6,0,6.8,1.8,8.7,4.5l17.8,0V35.9z M65.9,33.8c0.5,0.7,0.9,1.4,1.1,2.2c1.3,4.1-0.9,8.5-5,9.8
					c-3.3,1.1-6.8-0.2-8.7-2.9c-0.5,0.7-1.1,1.3-1.8,1.8c-3.5,2.5-8.3,1.8-10.8-1.7c-2-2.8-1.9-6.5,0-9.2c-0.8-0.2-1.5-0.6-2.2-1.1
					c-3.5-2.5-4.2-7.4-1.7-10.8c2-2.8,5.6-3.8,8.7-2.8c0-0.8,0.1-1.6,0.4-2.5c1.3-4.1,5.7-6.3,9.8-5c3.3,1.1,5.4,4.1,5.4,7.4
					c0.8-0.3,1.6-0.4,2.5-0.4c4.3,0,7.8,3.5,7.8,7.8C71.4,29.9,69.1,32.8,65.9,33.8L65.9,33.8z M1,40.3c-5.9,0-10.6-4.8-10.6-10.6
					c0-5.9,4.8-10.6,10.6-10.6c5.9,0,10.6,4.8,10.6,10.6C11.7,35.6,6.9,40.3,1,40.3L1,40.3z M151.4,38.8V2h-18.8l0,15.9
					c-4.5-10.2-14.7-17.2-26.5-17.2c-11.7,0-21.8,6.9-26.4,16.9C75.1,7.6,65.1,0.6,53.4,0.6c-11.5,0-21.5,6.7-26.2,16.5
					C22.5,7.4,12.6,0.6,1,0.6c-16,0-29,13-29,29.1s13,29.1,29,29.1c11.5,0,21.5-6.7,26.2-16.5c4.7,9.8,14.6,16.5,26.2,16.5
					c11.7,0,21.8-6.9,26.4-16.9c4.6,10,14.7,16.9,26.4,16.9c11.8,0,22-7.1,26.5-17.2l0,15.9h43.2V38.8H151.4z">
     </path>
    </g>
    <path id="Fill-42" class="st3" d="M94.5,25.8c-0.2-0.8-1.1-1.2-1.8-0.9c-0.6,0.2-1,0.8-1,1.5l-7.1,2.3c-0.1-0.2-0.2-0.5-0.4-0.7
				l2.4-2.2c0.3,0.1,0.6,0.2,0.9,0.1c0.6-0.2,0.9-0.8,0.7-1.4c-0.2-0.6-0.8-0.9-1.4-0.7c-0.6,0.2-0.9,0.8-0.7,1.4c0,0,0,0.1,0,0.1
				l-2.4,2.2c-0.2-0.2-0.4-0.3-0.6-0.4l1.3-3c0.3,0,0.6-0.1,0.8-0.3c0.5-0.4,0.5-1.1,0.1-1.6c-0.4-0.5-1.1-0.5-1.6-0.1
				s-0.5,1.1-0.1,1.6c0,0,0.1,0.1,0.1,0.1l-1.3,3c-0.2-0.1-0.5-0.1-0.7-0.2v-7.5c0.6-0.2,1.1-0.7,1.1-1.4c0-0.8-0.6-1.4-1.4-1.4
				c-0.8,0-1.4,0.6-1.4,1.4c0,0.7,0.5,1.2,1.1,1.4v7.5c-0.3,0-0.5,0.1-0.7,0.2l-1.3-3c0.2-0.2,0.3-0.5,0.3-0.8
				c0-0.6-0.5-1.1-1.1-1.1S77,22.3,77,22.9c0,0.6,0.5,1.1,1.1,1.1c0,0,0.1,0,0.1,0l1.3,3c-0.2,0.1-0.4,0.3-0.6,0.4l-2.5-2.2
				c0.1-0.3,0.1-0.6,0-0.9c-0.3-0.6-0.9-0.8-1.5-0.6c-0.6,0.2-0.8,0.9-0.6,1.5c0.3,0.6,0.9,0.8,1.5,0.6c0,0,0.1,0,0.1-0.1l2.4,2.2
				c-0.2,0.2-0.3,0.4-0.4,0.7L71,26.3c0-0.6-0.4-1.2-1-1.4c-0.8-0.2-1.6,0.2-1.8,0.9c-0.2,0.8,0.2,1.6,0.9,1.8
				c0.6,0.2,1.3-0.1,1.7-0.6l7.1,2.3c-0.1,0.2-0.1,0.5-0.1,0.8l-3.3,0.3c-0.1-0.3-0.4-0.5-0.7-0.6c-0.6-0.2-1.2,0.1-1.4,0.7
				c-0.2,0.6,0.1,1.2,0.7,1.4c0.6,0.2,1.2-0.1,1.4-0.7c0,0,0-0.1,0-0.1l3.2-0.3c0,0.3,0.1,0.5,0.2,0.7l-2.8,1.6
				c-0.2-0.2-0.5-0.3-0.8-0.2c-0.6,0.1-1.1,0.6-1,1.2c0.1,0.6,0.6,1.1,1.2,1c0.6-0.1,1.1-0.6,1-1.2c0,0,0-0.1,0-0.1l2.8-1.6
				c0.2,0.2,0.3,0.4,0.5,0.6l-4.4,6c-0.6-0.2-1.3,0-1.7,0.5c-0.5,0.6-0.3,1.5,0.3,2c0.6,0.5,1.6,0.3,2-0.3c0.4-0.5,0.4-1.3-0.1-1.8
				l4.3-6c0.2,0.1,0.5,0.2,0.7,0.3l-0.7,3.2c-0.3,0-0.6,0.2-0.7,0.4c-0.4,0.5-0.3,1.2,0.2,1.6c0.5,0.4,1.2,0.3,1.6-0.2
				c0.4-0.5,0.3-1.2-0.2-1.6c0,0-0.1,0-0.1-0.1l0.7-3.1c0.1,0,0.3,0,0.4,0c0.1,0,0.3,0,0.4,0l0.7,3.2c-0.2,0.2-0.4,0.4-0.5,0.7
				c-0.1,0.6,0.3,1.2,0.9,1.3c0.6,0.1,1.2-0.3,1.3-0.9c0.1-0.6-0.3-1.2-0.9-1.3c0,0-0.1,0-0.1,0l-0.7-3.1c0.3-0.1,0.5-0.2,0.7-0.3
				l4.4,6c-0.4,0.5-0.4,1.2,0,1.8c0.5,0.6,1.4,0.8,2,0.3c0.6-0.5,0.8-1.4,0.3-2c-0.4-0.5-1.1-0.7-1.7-0.5l-4.4-6
				c0.2-0.2,0.4-0.4,0.5-0.6l2.8,1.6c0,0.3,0,0.6,0.2,0.8c0.4,0.5,1.1,0.6,1.6,0.2c0.5-0.4,0.6-1.1,0.2-1.6
				c-0.4-0.5-1.1-0.6-1.6-0.2c0,0-0.1,0-0.1,0.1l-2.8-1.6c0.1-0.2,0.2-0.5,0.2-0.7l3.2,0.3c0.1,0.3,0.3,0.5,0.5,0.7
				c0.5,0.3,1.2,0.1,1.5-0.4c0.3-0.5,0.1-1.2-0.4-1.5c-0.5-0.3-1.2-0.1-1.5,0.4c0,0,0,0.1-0.1,0.1L85,30.1c0-0.3,0-0.5-0.1-0.8
				L92,27c0.3,0.5,1,0.8,1.7,0.6C94.4,27.4,94.8,26.6,94.5,25.8">
    </path>
   </g>
  </g>
 </g>
</svg>