<?xml version="1.0" encoding="UTF-8"?>
<svg id="Layer_1" data-name="Layer 1" xmlns="http://www.w3.org/2000/svg" viewBox="0 0 64 64">
  <defs>
    <style>
      .cls-1 {
        fill: #fff;
      }

      .cls-2 {
        fill: #df2235;
      }
    </style>
  </defs>
  <g>
    <circle class="cls-1" cx="32" cy="32" r="32"/>
    <path class="cls-1" d="M45.8795,36.46126c.55077.7711.99142,1.5422,1.21174,2.42342,1.432,4.51633-.99142,9.36317-5.50775,10.79517-3.6351,1.21174-7.49052-.22032-9.58349-3.19445-.55077.77103-1.21168,1.432-1.98278,1.98278-3.85542,2.75387-9.14285,1.98278-11.89672-1.87265-2.2031-3.08433-2.09297-7.16007,0-10.13427-.88123-.22032-1.65232-.6609-2.42342-1.21168-3.85542-2.75387-4.62652-8.15149-1.87265-11.89672,2.2031-3.08439,6.16865-4.18594,9.58349-3.08439,0-.88123.11013-1.76245.44058-2.75387,1.43207-4.51633,6.27885-6.93975,10.79524-5.50768,3.6351,1.21168,5.94833,4.51633,5.94833,8.15143.88129-.33045,1.76252-.44065,2.75387-.44065,4.73672,0,8.59214,3.85542,8.59214,8.59214-.1102,3.85542-2.64375,7.04988-6.05859,8.15143Z"/>
  </g>
  <g id="UI-Kit">
    <g id="Desktop-HD">
      <path id="Page-1" class="cls-2" d="M46.54046,27.24848c-.22031-.88124-1.2117-1.32186-1.98279-.99139-.66093.22031-1.10155.88124-1.10155,1.65232l-7.821,2.53356c-.11015-.22031-.22031-.55077-.44062-.77109l2.64372-2.42341c.33047.11016.66093.22031.9914.11016.66093-.22031.9914-.88124.77108-1.54217-.22031-.66093-.88124-.99139-1.54217-.77109-.66093.22031-.9914.88124-.77108,1.54217v.11016l-2.64372,2.42341c-.22031-.22031-.44062-.33046-.66093-.44062l1.43202-3.30465c.33047,0,.66093-.11016.88124-.33046.55077-.44062.55077-1.2117.11015-1.76248s-1.2117-.55077-1.76248-.11016-.55077,1.2117-.11015,1.76248l.11015.11016-1.43202,3.30465c-.22031-.11016-.55077-.11016-.77108-.22031v-8.26162c.66093-.22031,1.2117-.77109,1.2117-1.54217,0-.88124-.66093-1.54217-1.54217-1.54217s-1.54217.66093-1.54217,1.54217c0,.77109.55077,1.32186,1.2117,1.54217v8.26162c-.33047,0-.55077.11016-.77108.22031l-1.43202-3.30465c.22031-.22031.33047-.55077.33047-.88124,0-.66093-.55077-1.2117-1.2117-1.2117s-1.2117.55077-1.2117,1.2117.55077,1.2117,1.2117,1.2117h.11015l1.43202,3.30465c-.22031.11016-.44062.33046-.66093.44062l-2.75387-2.42341c.11015-.33046.11015-.66093,0-.99139-.33047-.66093-.9914-.88124-1.65232-.66093-.66093.22031-.88124.99139-.66093,1.65232.33047.66093.9914.88124,1.65232.66093,0,0,.11015,0,.11015-.11016l2.64372,2.42341c-.22031.22031-.33047.44062-.44062.77109l-7.821-2.53356c0-.66093-.44062-1.32186-1.10155-1.54217-.88124-.22031-1.76248.22031-1.98279.99139-.22031.88124.22031,1.76248.9914,1.98279.66093.22031,1.43202-.11016,1.87263-.66093l7.821,2.53356c-.11015.22031-.11015.55077-.11015.88124l-3.63512.33046c-.11015-.33046-.44062-.55077-.77108-.66093-.66093-.22031-1.32186.11016-1.54217.77109-.22031.66093.11015,1.32186.77108,1.54217s1.32186-.11016,1.54217-.77109v-.11016l3.52496-.33046c0,.33046.11015.55077.22031.77109l-3.08434,1.76248c-.22031-.22031-.55077-.33046-.88124-.22031-.66093.11015-1.2117.66093-1.10155,1.32186.11015.66093.66093,1.2117,1.32186,1.10155s1.2117-.66093,1.10155-1.32186v-.11015l3.08434-1.76248c.22031.22031.33047.44062.55077.66093l-4.84682,6.6093c-.66093-.22031-1.43202,0-1.87263.55077-.55077.66093-.33047,1.65232.33047,2.2031.66093.55077,1.76248.33046,2.2031-.33046.44062-.55077.44062-1.43201-.11015-1.98279l4.73667-6.6093c.22031.11015.55077.22031.77108.33046l-.77108,3.52496c-.33047,0-.66093.22031-.77108.44062-.44062.55077-.33047,1.32186.22031,1.76248.55077.44062,1.32186.33046,1.76248-.22031s.33047-1.32186-.22031-1.76248c0,0-.11015,0-.11015-.11015l.77108-3.4148h.88124l.77108,3.52496c-.22031.22031-.44062.44062-.55077.77109-.11015.66093.33047,1.32186.9914,1.43201s1.32186-.33046,1.43202-.9914c.11015-.66093-.33047-1.32186-.9914-1.43201h-.11015l-.77108-3.4148c.33047-.11015.55077-.22031.77108-.33046l4.84682,6.6093c-.44062.55077-.44062,1.32186,0,1.98279.55077.66093,1.54217.88124,2.2031.33046s.88124-1.54217.33047-2.2031c-.44062-.55077-1.2117-.77109-1.87263-.55077l-4.84682-6.6093c.22031-.22031.44062-.44062.55077-.66093l3.08434,1.76248c0,.33046,0,.66093.22031.88124.44062.55077,1.2117.66093,1.76248.22031.55077-.44062.66093-1.2117.22031-1.76248s-1.2117-.66093-1.76248-.22031c0,0-.11015,0-.11015.11015l-3.08434-1.76248c.11015-.22031.22031-.55077.22031-.77109l3.52496.33046c.11015.33046.33047.55077.55077.77108.55077.33046,1.32186.11015,1.65232-.44062.33047-.55077.11015-1.32186-.44062-1.65232s-1.32186-.11016-1.65232.44062c0,0,0,.11016-.11015.11016l-3.52496-.33046c0-.33046,0-.55077-.11015-.88124l7.821-2.53356c.33047.55077,1.10155.88124,1.87263.66093,1.21171-.44062,1.65233-1.32186,1.43202-2.2031M32,0C14.32693,0,0,14.32687,0,32s14.32693,32,32,32,32-14.32687,32-32S49.67313,0,32,0ZM45.8795,36.46126c.55077.7711.99142,1.5422,1.21174,2.42342,1.432,4.51633-.99142,9.36317-5.50775,10.79517-3.6351,1.21174-7.49052-.22032-9.58349-3.19445-.55077.77103-1.21168,1.432-1.98278,1.98278-3.85542,2.75387-9.14285,1.98278-11.89672-1.87265-2.2031-3.08433-2.09297-7.16007,0-10.13427-.88123-.22032-1.65232-.6609-2.42342-1.21168-3.85542-2.75387-4.62652-8.15149-1.87265-11.89672,2.2031-3.08439,6.16865-4.18594,9.58349-3.08439,0-.88123.11013-1.76245.44058-2.75387,1.43207-4.51633,6.27885-6.93975,10.79524-5.50768,3.6351,1.21168,5.94833,4.51633,5.94833,8.15143.88129-.33045,1.76252-.44065,2.75387-.44065,4.73672,0,8.59214,3.85542,8.59214,8.59214-.1102,3.85542-2.64375,7.04988-6.05859,8.15143Z"/>
    </g>
  </g>
</svg>