<svg version="1.1" id="Layer_1" xmlns:x="ns_extend;" xmlns:i="ns_ai;" xmlns:graph="ns_graphs;" xmlns="http://www.w3.org/2000/svg" xmlns:xlink="http://www.w3.org/1999/xlink" x="0px" y="0px" viewBox="0 0 95.6 57.1" style="enable-background:new 0 0 95.6 57.1;" xml:space="preserve">
 <style type="text/css">
  .st0{fill-rule:evenodd;clip-rule:evenodd;fill:#051039;}
	.st1{fill:#FF0000;}
 </style>
 <metadata>
  <sfw xmlns="ns_sfw;">
   <slices>
   </slices>
   <sliceSourceBounds bottomLeftOrigin="true" height="57.1" width="95.6" x="105.8" y="41.4">
   </sliceSourceBounds>
  </sfw>
 </metadata>
 <g>
  <path class="st0" d="M45.8,35.4l-5.6-13.7h-4.1l-5.6,13.7h3.2l0.9-2.3h7l1,2.3H45.8L45.8,35.4z M38.1,23.9l2.5,6.6h-5L38.1,23.9z
		 M25.9,28.2l1-1.8v9h3V21.7h-3.3l-4,7.3l-4.3-7.3h-3.2v13.7h2.8v-9l1,1.8l3.5,5.8h0.1L25.9,28.2L25.9,28.2z M91.7,28.2l1-1.8v9h2.9
		V21.7h-3L88.3,29L84,21.7h-3.2v13.7h2.8v-9l1,1.8l3.5,5.8h0.1L91.7,28.2z M10.3,31.4v0.1c0,1-0.6,1.3-1.9,1.3h-3
		c-2.1,0-2.5-0.2-2.5-2.7v-3c0-2.5,0.4-2.8,2.6-2.8h3c1.2,0,1.8,0.2,1.8,1.3h3c0-3-1-4-4.7-4H4.8C1.4,21.6,0,23,0,26.4v4.4
		c0,3.3,1.4,4.7,4.8,4.7h3.8c3.6,0,4.8-1,4.8-4h-3L10.3,31.4z M60.3,31.4v0.1c0,1-0.6,1.3-1.9,1.3h-2.9c-2.2,0-2.5-0.2-2.5-2.7v-3
		c0-2.5,0.3-2.8,2.5-2.8h3c1.2,0,1.8,0.2,1.8,1.3h3c0-3-1.1-4-4.7-4h-3.8c-3.4,0-4.8,1.4-4.8,4.8v4.4c0,3.3,1.4,4.7,4.8,4.7h3.8
		c3.6,0,4.7-1,4.7-4L60.3,31.4L60.3,31.4z M75.8,31.5c0,1-0.6,1.3-2,1.3h-3.5c-2.2,0-2.5-0.2-2.5-2.7v-3c0-2.5,0.3-2.8,2.5-2.8h3.4
		c1.3,0,2,0.2,2,1.3h3c0-3-1.2-4-4.8-4h-4.3c-3.5,0-4.8,1.4-4.8,4.8v4.4c0,3.3,1.3,4.7,4.8,4.7h4.2c3.6,0,4.8-1,4.8-4V28h-7v2.3h4
		v1.3L75.8,31.5z">
  </path>
  <path class="st1" d="M58.6,1.1c0.1-0.1,0.2-0.2,0.1-0.3c-0.1-0.1-0.2-0.2-0.3-0.1c-7.6-2.2-30.8,0-41.7,16.7
		c-0.2,0.3-0.2,0.3,0,0.5c3.8-6.3,12.5-11.2,23-12.3c4.4-0.4,8.8-0.1,13.1,0.7c0.4,0,0.4,0,0.7-0.2C55.3,4.5,57,2.9,58.6,1.1
		L58.6,1.1z M37,56c-0.1,0-0.2,0.1-0.1,0.3s0.1,0.2,0.2,0.1c7.7,2.2,30.8,0,41.8-16.7c0.1-0.3,0-0.3-0.1-0.4
		c-3.8,6.2-12.5,11.1-23,12.2c-4.3,0.3-8.7,0.1-13-0.7c-0.5,0-0.5,0-0.8,0.2C40.2,52.5,38.5,54.2,37,56z">
  </path>
 </g>
</svg>