<svg fill="none" viewBox="0 0 321 38" xmlns="http://www.w3.org/2000/svg">
<path d="M83 1V38H92.1198V24.8008H105.83V16.9173H92.1198V9.02385H107V1H83Z" fill="#57B89C"></path>
<path d="M37 1V38H58V30.2332H46.2257V1H37Z" fill="currentColor"></path>
<path d="M60 1V38H81V30.2332H69.2155V1H60Z" fill="currentColor"></path>
<path d="M128.16 0C116.71 0 108.7 8.49 108.7 19.28C108.7 30.07 116.71 38.56 128.16 38.56C139.61 38.56 147.62 30.07 147.62 19.28C147.62 8.49 139.54 0 128.16 0ZM128.16 30.18C121.71 30.18 117.68 25.36 117.68 19.28C117.68 13.2 121.72 8.38 128.16 8.38C134.6 8.38 138.64 13.2 138.64 19.28C138.64 25.36 134.54 30.18 128.16 30.18Z" fill="#57B89C"></path>
<path d="M301.792 1H289V38H301.792C313.541 38 321 29.3006 321 19.4399C321 9.01867 312.618 1 301.792 1ZM301.613 29.7411H298.008V9.20888H301.613C307.92 9.20888 311.773 13.7137 311.773 19.4499C311.773 25.6767 307.374 29.7511 301.613 29.7511V29.7411Z" fill="#57B89C"></path>
<path d="M179 1H189.034L193.041 21.7148H193.471L197.389 1H208.611L212.529 21.7148H212.959L216.966 1H227L218.255 38H207.652L203.205 15.6918H202.775L198.328 38H187.725L179 1Z" fill="#57B89C"></path>
<path d="M35 37.99L22.6152 1H12.3748L0 37.99H1.85371C1.85371 37.99 1.85371 37.99 1.85371 38H9.8998C9.8998 33.8002 13.2866 30.3785 17.4549 30.3785C21.6232 30.3785 25.01 33.8002 25.01 38H33.0661C33.0661 38 33.0661 38 33.0661 37.99H34.99H35ZM13.9279 22.6573L16.8637 12.3624L20.2605 22.5077C19.3487 22.3381 18.4168 22.2583 17.4649 22.2583C16.2625 22.2583 15.0802 22.398 13.9279 22.6573Z" fill="currentColor"></path>
<path d="M288 37.99L277.956 24.2391C283.472 22.8851 286.76 19.2442 286.76 12.775C286.76 5.80428 281.556 1 273.56 1H258V13.2464V19.5752V38H267.106V24.1889L276.585 38H287.99L288 37.99ZM274.427 17.0276H267.116V8.71293H274.185C276.232 8.71293 277.845 10.6286 277.845 12.785C277.845 14.9414 276.484 17.0377 274.437 17.0377L274.427 17.0276Z" fill="#57B89C"></path>
<path d="M180 37.99L169.956 24.2391C175.472 22.8851 178.76 19.2442 178.76 12.775C178.76 5.80428 173.556 1 165.56 1H150V13.2464V19.5752V38H159.106V24.1889L168.585 38H179.99L180 37.99ZM166.427 17.0276H159.116V8.71293H166.185C168.232 8.71293 169.845 10.6286 169.845 12.785C169.845 14.9414 168.484 17.0377 166.437 17.0377L166.427 17.0276Z" fill="#57B89C"></path>
<path d="M227.5 11.29L241.38 16.88L224.47 24.08L227.5 11.29Z" fill="currentColor"></path>
<path d="M229.696 1L227.82 8.99321L247.388 16.8959L223.527 27.2519L221 38L264.92 18.213L265 14.9152L229.696 1Z" fill="#57B89C"></path>
</svg>